<svg width="36" height="36" viewBox="0 0 36 36" fill="none" xmlns="http://www.w3.org/2000/svg">
<rect width="36" height="35" transform="translate(0 0.922852)" fill="#00F500"/>
<path d="M19.5884 18.2988C20.6877 16.499 23.2061 15.8323 23.8921 16.9277L21.1304 20.8438L21.6128 21.6172C20.4798 22.5472 18.8572 23.3358 16.8101 22.9756H16.73C18.0472 23.5016 20.1634 22.9532 21.8081 21.9307L24.3335 25.9766L26.3774 29.2529H20.2681L17.2388 24.0205L16.439 25.042V29.2529H11.103V27.0859C15.5301 25.2144 18.6168 19.6977 19.5288 18.4072L19.5884 18.2988ZM16.439 18.1387C14.3324 19.0434 12.3853 19.1174 11.7671 19.0762C11.7647 19.0808 11.7237 19.1663 11.8354 19.1758C13.6356 19.2001 15.1845 18.7847 16.439 18.2373V19.3916H16.6323L17.8169 17.5254C19.3267 16.6193 20.1352 15.6951 20.0933 15.7783C18.5866 19.6337 14.9448 25.096 11.103 26.9521V7.59375H16.439V18.1387ZM24.0239 16.7412C23.0603 15.8615 20.8399 16.3582 19.5825 18.1055C20.9393 15.4829 20.5681 15.9752 21.0903 14.9365C21.1562 14.6979 20.9266 14.6783 20.6216 14.9316C20.5186 15.0648 20.3345 15.1983 20.0786 15.5391C19.4086 16.2944 18.6711 16.8903 17.9204 17.3623L20.9028 12.6699H26.897L24.0239 16.7412Z" fill="black"/>
</svg>
