<svg width="41" height="41" viewBox="0 0 41 41" fill="none" xmlns="http://www.w3.org/2000/svg">
<path d="M20.2297 0.973633C9.18974 0.973633 0.229736 9.93363 0.229736 20.9736C0.229736 32.0136 9.18974 40.9736 20.2297 40.9736C31.2697 40.9736 40.2297 32.0136 40.2297 20.9736C40.2297 9.93363 31.2697 0.973633 20.2297 0.973633ZM29.5097 14.5736C29.2097 17.7336 27.9097 25.4136 27.2497 28.9536C26.9697 30.4536 26.4097 30.9536 25.8897 31.0136C24.7297 31.1136 23.8497 30.2536 22.7297 29.5136C20.9697 28.3536 19.9697 27.6336 18.2697 26.5136C16.2897 25.2136 17.5697 24.4936 18.7097 23.3336C19.0097 23.0336 24.1297 18.3736 24.2297 17.9536C24.2436 17.89 24.2418 17.824 24.2244 17.7612C24.2069 17.6985 24.1744 17.641 24.1297 17.5936C24.0097 17.4936 23.8497 17.5336 23.7097 17.5536C23.5297 17.5936 20.7297 19.4536 15.2697 23.1336C14.4697 23.6736 13.7497 23.9536 13.1097 23.9336C12.3897 23.9136 11.0297 23.5336 10.0097 23.1936C8.74974 22.7936 7.76974 22.5736 7.84974 21.8736C7.88974 21.5136 8.38974 21.1536 9.32974 20.7736C15.1697 18.2336 19.0497 16.5536 20.9897 15.7536C26.5497 13.4336 27.6897 13.0336 28.4497 13.0336C28.6097 13.0336 28.9897 13.0736 29.2297 13.2736C29.4297 13.4336 29.4897 13.6536 29.5097 13.8136C29.4897 13.9336 29.5297 14.2936 29.5097 14.5736Z" fill="black"/>
</svg>
