<svg width="41" height="41" viewBox="0 0 41 41" fill="none" xmlns="http://www.w3.org/2000/svg">
<path d="M20.2297 0.0292969C9.18974 0.0292969 0.229736 8.9893 0.229736 20.0293C0.229736 31.0693 9.18974 40.0293 20.2297 40.0293C31.2697 40.0293 40.2297 31.0693 40.2297 20.0293C40.2297 8.9893 31.2697 0.0292969 20.2297 0.0292969ZM29.5097 13.6293C29.2097 16.7893 27.9097 24.4693 27.2497 28.0093C26.9697 29.5093 26.4097 30.0093 25.8897 30.0693C24.7297 30.1693 23.8497 29.3093 22.7297 28.5693C20.9697 27.4093 19.9697 26.6893 18.2697 25.5693C16.2897 24.2693 17.5697 23.5493 18.7097 22.3893C19.0097 22.0893 24.1297 17.4293 24.2297 17.0093C24.2436 16.9457 24.2418 16.8796 24.2244 16.8169C24.2069 16.7542 24.1744 16.6966 24.1297 16.6493C24.0097 16.5493 23.8497 16.5893 23.7097 16.6093C23.5297 16.6493 20.7297 18.5093 15.2697 22.1893C14.4697 22.7293 13.7497 23.0093 13.1097 22.9893C12.3897 22.9693 11.0297 22.5893 10.0097 22.2493C8.74974 21.8493 7.76974 21.6293 7.84974 20.9293C7.88974 20.5693 8.38974 20.2093 9.32974 19.8293C15.1697 17.2893 19.0497 15.6093 20.9897 14.8093C26.5497 12.4893 27.6897 12.0893 28.4497 12.0893C28.6097 12.0893 28.9897 12.1293 29.2297 12.3293C29.4297 12.4893 29.4897 12.7093 29.5097 12.8693C29.4897 12.9893 29.5297 13.3493 29.5097 13.6293Z" fill="#00F500"/>
</svg>
