<svg width="40" height="41" viewBox="0 0 40 41" fill="none" xmlns="http://www.w3.org/2000/svg">
<path d="M18.1494 15.6846C18.2083 15.6848 18.2661 15.7042 18.3145 15.7393C18.3625 15.7743 18.3993 15.8236 18.4199 15.8809L19.1299 17.8633C19.1483 17.9146 19.1531 17.9705 19.1436 18.0244L18.7842 20.0537C19.2313 21.1762 19.9767 21.9215 21.208 22.5859L23.1172 22.1973C23.1707 22.1861 23.2264 22.1907 23.2773 22.2109L25.1709 22.9688C25.2255 22.9907 25.2726 23.0298 25.3057 23.0801C25.3387 23.1304 25.3564 23.19 25.3564 23.251V25.0879C25.3562 25.87 24.7002 26.5042 23.9316 26.3281C22.4472 25.9888 19.7052 25.1279 17.7891 23.1152C15.9561 21.1902 15.3404 18.5258 15.1318 17.0801C15.0219 16.309 15.6096 15.6846 16.3193 15.6846H18.1494Z" fill="black"/>
<path fill-rule="evenodd" clip-rule="evenodd" d="M20 0.973633C31.0457 0.973633 40 9.92794 40 20.9736C40 32.0193 31.0457 40.9736 20 40.9736C8.9543 40.9736 0 32.0193 0 20.9736C0 9.92794 8.9543 0.973633 20 0.973633ZM20.2373 10.1982C14.5036 10.1984 9.85547 15.0441 9.85547 21.0215C9.85313 22.4366 10.1183 23.8382 10.6357 25.1465L9.86328 30.4727C9.84618 30.5904 9.85556 30.7112 9.8916 30.8242C9.92774 30.9374 9.98979 31.0403 10.0713 31.124C10.1528 31.2076 10.2523 31.2697 10.3613 31.3057C10.4702 31.3415 10.5856 31.3506 10.6982 31.3311L15.2764 30.5303C16.7511 31.3679 18.441 31.8447 20.2373 31.8447C25.971 31.8447 30.6189 26.9987 30.6191 21.0215C30.6191 15.044 25.9711 10.1982 20.2373 10.1982Z" fill="black"/>
</svg>
