<svg width="40" height="41" viewBox="0 0 40 41" fill="none" xmlns="http://www.w3.org/2000/svg">
<path d="M18.1494 14.7402C18.2083 14.7404 18.2661 14.7598 18.3145 14.7949C18.3625 14.8299 18.3993 14.8793 18.4199 14.9365L19.1299 16.9189C19.1483 16.9703 19.1531 17.0262 19.1436 17.0801L18.7842 19.1094C19.2313 20.2318 19.9767 20.9772 21.208 21.6416L23.1172 21.2529C23.1707 21.2418 23.2264 21.2464 23.2773 21.2666L25.1709 22.0244C25.2255 22.0464 25.2726 22.0854 25.3057 22.1357C25.3387 22.186 25.3564 22.2457 25.3564 22.3066V24.1436C25.3562 24.9257 24.7002 25.5599 23.9316 25.3838C22.4472 25.0445 19.7052 24.1835 17.7891 22.1709C15.9561 20.2459 15.3404 17.5815 15.1318 16.1357C15.0219 15.3646 15.6096 14.7402 16.3193 14.7402H18.1494Z" fill="#00F500"/>
<path fill-rule="evenodd" clip-rule="evenodd" d="M20 0.0292969C31.0457 0.0292969 40 8.9836 40 20.0293C40 31.075 31.0457 40.0293 20 40.0293C8.9543 40.0293 0 31.075 0 20.0293C0 8.9836 8.9543 0.0292969 20 0.0292969ZM20.2373 9.25391C14.5036 9.25402 9.85547 14.0998 9.85547 20.0771C9.85313 21.4922 10.1183 22.8939 10.6357 24.2021L9.86328 29.5283C9.84618 29.6461 9.85556 29.7668 9.8916 29.8799C9.92774 29.993 9.98979 30.096 10.0713 30.1797C10.1528 30.2633 10.2523 30.3254 10.3613 30.3613C10.4702 30.3972 10.5856 30.4063 10.6982 30.3867L15.2764 29.5859C16.7511 30.4236 18.441 30.9004 20.2373 30.9004C25.971 30.9004 30.6189 26.0544 30.6191 20.0771C30.6191 14.0997 25.9711 9.25391 20.2373 9.25391Z" fill="#00F500"/>
</svg>
