<svg width="36" height="35" viewBox="0 0 36 35" fill="none" xmlns="http://www.w3.org/2000/svg">
<path d="M20.355 16.6792C21.8337 14.2585 25.3225 13.4432 25.9712 15.1704L22.3882 20.2515L22.8521 20.9946C21.4094 22.1497 19.3675 23.1043 16.8071 22.6538H16.7046C18.3607 23.3151 21.0062 22.6471 23.0923 21.3804L26.479 26.8081L29.0903 30.9927H21.2866L17.4175 24.3101L16.397 25.6138V30.9927H9.58057V27.8765C15.2014 25.4604 19.1182 18.46 20.2788 16.8179L20.355 16.6792ZM16.397 16.4478C13.6818 17.6296 11.1616 17.7255 10.3657 17.6724C10.3657 17.6724 10.306 17.7879 10.4526 17.8003C12.7828 17.8318 14.7834 17.2858 16.397 16.5728V18.397H16.644L18.5376 15.4155C20.1794 14.3546 21.0498 13.3627 21.0005 13.4604C19.0843 18.3637 14.4643 25.3016 9.58057 27.7017V3.32764H16.397V16.4478ZM26.188 14.8638C25.0669 13.5081 22.0315 14.0938 20.3481 16.4331C22.0812 13.0832 21.6069 13.7119 22.2739 12.3853C22.358 12.0804 22.065 12.0557 21.6753 12.3794C21.5438 12.5495 21.3087 12.7195 20.9819 13.1548C20.2628 13.9655 19.4835 14.6336 18.6841 15.1841L22.0981 9.81104H29.7534L26.188 14.8638Z" fill="black"/>
</svg>
